<svg xmlns="http://www.w3.org/2000/svg" version="1.1" xmlns:xlink="http://www.w3.org/1999/xlink" xmlns:svgjs="http://svgjs.dev/svgjs" width="1000" height="750" viewBox="0 0 1000 750"><rect width="1000" height="750" fill="#fab23d"></rect><g transform="matrix(0.834,0,0,0.834,82.49454545454546,115.4193570850203)"><svg viewBox="0 0 396 247" data-background-color="#fab23d" preserveAspectRatio="xMidYMid meet" height="623" width="1000" xmlns="http://www.w3.org/2000/svg" xmlns:xlink="http://www.w3.org/1999/xlink"><g id="tight-bounds" transform="matrix(1,0,0,1,0.2400000000000091,-0.09999999999999432)"><svg viewBox="0 0 395.52 247.2" height="247.2" width="395.52"><g><svg></svg></g><g><svg viewBox="0 0 395.52 247.2" height="247.2" width="395.52"><g transform="matrix(1,0,0,1,75.54432,98.77736385199401)"><svg viewBox="0 0 244.43135999999998 49.64527229601197" height="49.64527229601197" width="244.43135999999998"><g><svg viewBox="0 0 323.49375962929054 65.70325420951212" height="49.64527229601197" width="244.43135999999998"><g transform="matrix(1,0,0,1,79.06239962929054,18.704545847260153)"><svg viewBox="0 0 244.43135999999998 28.294162514991818" height="28.294162514991818" width="244.43135999999998"><g id="textblocktransform"><svg viewBox="0 0 244.43135999999998 28.294162514991818" height="28.294162514991818" width="244.43135999999998" id="textblock"><g><svg viewBox="0 0 244.43135999999998 28.294162514991818" height="28.294162514991818" width="244.43135999999998"><g transform="matrix(1,0,0,1,0,0)"><svg width="244.43135999999998" viewBox="1.2300000190734863 -31.850000381469727 270.25 31.850000381469727" height="28.294162514991818" data-palette-color="#111111"><g class="wordmark-text-0" data-fill-palette-color="primary" id="text-0"><path d="M6.23 0L1.23 0 12.13-31.85 18-31.85 28.58 0 23.58 0 21.1-7.6 8.8-7.6 6.23 0ZM14.98-26.13L10-11.25 19.93-11.25 14.98-26.13ZM34.67 0L34.67-31.85 44.42-31.85Q49.27-31.85 52.86-29.89 56.45-27.93 58.45-24.35 60.45-20.78 60.45-15.93L60.45-15.93Q60.45-11.1 58.45-7.53 56.45-3.95 52.86-1.98 49.27 0 44.42 0L44.42 0 34.67 0ZM44.42-27.58L39.42-27.58 39.42-4.2 44.42-4.2Q47.82-4.2 50.26-5.73 52.7-7.25 54.02-9.9 55.35-12.55 55.35-15.93L55.35-15.93Q55.35-19.3 54.02-21.94 52.7-24.58 50.26-26.08 47.82-27.58 44.42-27.58L44.42-27.58ZM73 0L68.25 0 68.25-31.85 79.65-31.85Q85.22-31.85 88.13-29.21 91.05-26.58 91.05-22.28L91.05-22.28Q91.05-18.03 88.13-15.4 85.22-12.78 79.65-12.78L79.65-12.78 73-12.78 73 0ZM92 0L85.82 0 77-14.65 82.12-14.65 92 0ZM73-27.75L73-16.03 79.22-16.03Q82.62-16.03 84.4-17.66 86.17-19.3 86.17-21.9L86.17-21.9Q86.17-24.58 84.51-26.16 82.84-27.75 79.65-27.75L79.65-27.75 73-27.75ZM104.27 0L99.52 0 99.52-31.85 104.27-31.85 104.27 0ZM115.39 0L110.39 0 121.29-31.85 127.17-31.85 137.74 0 132.74 0 130.27-7.6 117.97-7.6 115.39 0ZM124.14-26.13L119.17-11.25 129.09-11.25 124.14-26.13ZM143.76 0L143.76-31.85 149.19-31.85 164.61-7.15 164.24-7.15 164.24-31.85 168.99-31.85 168.99 0 163.94 0 147.76-25.8 148.51-25.8 148.51 0 143.76 0Z" fill="#111111" data-fill-palette-color="primary"></path><path d="M186.06 0L186.06-31.85 195.81-31.85Q200.66-31.85 204.25-29.89 207.84-27.93 209.84-24.35 211.84-20.78 211.84-15.93L211.84-15.93Q211.84-11.1 209.84-7.53 207.84-3.95 204.25-1.98 200.66 0 195.81 0L195.81 0 186.06 0ZM195.81-27.58L190.81-27.58 190.81-4.2 195.81-4.2Q199.21-4.2 201.65-5.73 204.09-7.25 205.41-9.9 206.74-12.55 206.74-15.93L206.74-15.93Q206.74-19.3 205.41-21.94 204.09-24.58 201.65-26.08 199.21-27.58 195.81-27.58L195.81-27.58ZM239.59 0L219.59 0 219.59-31.85 239.59-31.85 239.59-27.75 224.34-27.75 224.34-18.05 238.69-18.05 238.69-13.95 224.34-13.95 224.34-4.15 239.59-4.15 239.59 0ZM258.13-5.13L257.58-5.13 266.46-31.85 271.48-31.85 260.31 0 255.33 0 244.28-31.85 249.33-31.85 258.13-5.13Z" fill="#454545" data-fill-palette-color="secondary"></path></g></svg></g></svg></g></svg></g></svg></g><g><svg viewBox="0 0 65.70325420951212 65.70325420951212" height="65.70325420951212" width="65.70325420951212"><g><svg></svg></g><g id="icon-0"><svg viewBox="0 0 65.70325420951212 65.70325420951212" height="65.70325420951212" width="65.70325420951212"><g><path d="M0 32.852c0-18.143 14.708-32.852 32.852-32.852 18.143 0 32.852 14.708 32.851 32.852 0 18.143-14.708 32.852-32.851 32.851-18.143 0-32.852-14.708-32.852-32.851zM32.852 63.152c16.734 0 30.3-13.566 30.3-30.3 0-16.734-13.566-30.3-30.3-30.3-16.734 0-30.3 13.566-30.3 30.3 0 16.734 13.566 30.3 30.3 30.3z" data-fill-palette-color="accent" fill="#111111" stroke="transparent"></path></g><g transform="matrix(1,0,0,1,18.937148377342726,16.76699751924422)"><svg viewBox="0 0 27.82895745482667 32.16925917102368" height="32.16925917102368" width="27.82895745482667"><g><svg xmlns="http://www.w3.org/2000/svg" xmlns:xlink="http://www.w3.org/1999/xlink" version="1.1" x="0" y="0" viewBox="17.299999237060547 12.199999809265137 65.39999389648438 75.60000610351562" style="enable-background:new 0 0 100 100;" xml:space="preserve" height="32.16925917102368" width="27.82895745482667" class="icon-s-0" data-fill-palette-color="accent" id="s-0"><path d="M50 12.2L17.3 31.1v37.8L50 87.8l32.7-18.9V31.1L50 12.2zM32.1 37.4L50 16l17 21.4H32.1zM67.3 39.4L50 70.4l-18.2-31H67.3zM48.1 71l-27.7-4.5 9.8-25.9L48.1 71zM68.9 40.7l10.7 25.9-27.7 4.5L68.9 40.7zM69.2 37.1L52.6 16l27 15.6L69.2 37.1zM29.8 37.1l-9.4-5.5 26.8-15.5L29.8 37.1zM28.8 38.8l-9.5 25V33.3L28.8 38.8zM49 73.2v11.7L20.9 68.7 49 73.2zM51 73.2l28.1-4.5L51 84.9V73.2zM70.3 38.8l10.5-5.6v30.9L70.3 38.8z" fill="#111111" data-fill-palette-color="accent"></path></svg></g></svg></g></svg></g></svg></g></svg></g></svg></g><path d="M193.752 92.777L193.752 27.089 0.73 27.089 0.73 220.111 193.752 220.111 193.752 154.423 191.824 154.423 191.824 218.183 2.658 218.183 2.658 29.017 191.824 29.017 191.824 92.777Z" fill="#111111" stroke="transparent" data-fill-palette-color="primary"></path></svg></g><defs></defs></svg><rect width="395.52" height="247.2" fill="none" stroke="none" visibility="hidden"></rect></g></svg></g></svg>