<svg xmlns="http://www.w3.org/2000/svg" version="1.1" xmlns:xlink="http://www.w3.org/1999/xlink" xmlns:svgjs="http://svgjs.dev/svgjs" width="2000" height="1247" viewBox="0 0 2000 1247"><g transform="matrix(1,0,0,1,-1.2121212121212466,0.504858299595071)"><svg viewBox="0 0 396 247" data-background-color="#000000" preserveAspectRatio="xMidYMid meet" height="1247" width="2000" xmlns="http://www.w3.org/2000/svg" xmlns:xlink="http://www.w3.org/1999/xlink"><g id="tight-bounds" transform="matrix(1,0,0,1,0.2400000000000091,-0.09999999999999432)"><svg viewBox="0 0 395.52 247.2" height="247.2" width="395.52"><g><svg></svg></g><g><svg viewBox="0 0 395.52 247.2" height="247.2" width="395.52"><g transform="matrix(1,0,0,1,75.54432,80.71282665274151)"><svg viewBox="0 0 244.43135999999998 85.77434669451695" height="85.77434669451695" width="244.43135999999998"><g><svg viewBox="0 0 244.43135999999998 85.77434669451695" height="85.77434669451695" width="244.43135999999998"><g><svg viewBox="0 0 244.43135999999998 85.77434669451695" height="85.77434669451695" width="244.43135999999998"><g><svg viewBox="0 0 244.43135999999998 85.77434669451695" height="85.77434669451695" width="244.43135999999998"><g id="textblocktransform"><svg viewBox="0 0 244.43135999999998 85.77434669451695" height="85.77434669451695" width="244.43135999999998" id="textblock"><g><svg viewBox="0 0 244.43135999999998 85.77434669451695" height="85.77434669451695" width="244.43135999999998"><g transform="matrix(1,0,0,1,0,0)"><svg width="244.43135999999998" viewBox="0.8500000238418579 -32.95000076293945 95.73999786376953 33.60000228881836" height="85.77434669451695" data-palette-color="#fab23d"><path d="M15.95 0.6Q15.15 0.5 12.55 0.25 9.95 0 8 0L8 0Q6.25 0 3.9 0.18 1.55 0.35 0.85 0.4L0.85 0.4 1.25-4.25Q3.15-4.55 3.83-5.43 4.5-6.3 4.5-8.4L4.5-8.4 4.5-25.15Q4.5-26.7 4.23-27.28 3.95-27.85 3.25-27.85L3.25-27.85Q2.7-27.85 2.25-27.8 1.8-27.75 1.65-27.75L1.65-27.75 1.15-28.45 1.6-32.5Q2.5-32.5 4.83-32.43 7.15-32.35 9.2-32.35L9.2-32.35Q10.65-32.35 13.6-32.48 16.55-32.6 17.5-32.65L17.5-32.65Q25.35-32.65 29.35-28.85 33.35-25.05 33.35-17.6L33.35-17.6Q33.35-12.05 31.23-7.95 29.1-3.85 25.18-1.63 21.25 0.6 15.95 0.6L15.95 0.6ZM15.7-26.3Q15.15-26.3 14.93-26 14.7-25.7 14.65-24.95L14.65-24.95Q14.15-17.8 14.15-8.1L14.15-8.1Q14.15-6.65 14.53-6.15 14.9-5.65 15.95-5.65L15.95-5.65Q19.2-5.65 20.55-7.95 21.9-10.25 21.9-15.7L21.9-15.7Q21.9-19.85 21.33-22.13 20.75-24.4 19.43-25.35 18.1-26.3 15.7-26.3L15.7-26.3ZM62.9-11.5L63.5-10.75Q62.65-6.35 62.1-0.45L62.1-0.45 61.35 0.35Q52.95 0 45.3 0L45.3 0Q40.4 0 34.75 0.5L34.75 0.5 35.2-4.1Q37.1-4.4 37.77-5.33 38.45-6.25 38.45-8.5L38.45-8.5 38.5-25.25Q38.5-26.9 38.25-27.43 38-27.95 37.15-27.95L37.15-27.95Q36.45-27.95 35.85-27.85L35.85-27.85 35.25-28.55 35.7-32.5Q36.7-32.5 37.25-32.45L37.25-32.45Q43.35-32.35 47.35-32.35L47.35-32.35Q52.05-32.35 56.37-32.52 60.7-32.7 62.8-32.95L62.8-32.95 63.45-32.15Q63.05-30.1 62.72-27.25 62.4-24.4 62.3-22.2L62.3-22.2 55.4-21.75 55.5-23.6Q55.5-24.75 55.12-25.33 54.75-25.9 53.72-26.13 52.7-26.35 50.6-26.35L50.6-26.35Q49.55-26.35 49.22-26.1 48.9-25.85 48.9-25L48.9-25 48.6-19.35 52.7-19.3Q54.7-19.3 58.2-19.6L58.2-19.6 58.8-18.9 58.1-13.15Q53.3-13.3 52.1-13.3L52.1-13.3Q51.05-13.3 48.35-13L48.35-13 48.3-8.75Q48.3-7.4 48.47-6.78 48.65-6.15 49.12-5.95 49.6-5.75 50.7-5.75L50.7-5.75Q52.95-5.75 54.05-6.15 55.15-6.55 55.67-7.63 56.2-8.7 56.5-11.05L56.5-11.05 62.9-11.5ZM73 0.65Q72.3-2.55 70.12-11.93 67.95-21.3 67.09-24.65L67.09-24.65Q66.65-26.35 66.02-27.1 65.4-27.85 64.34-28L64.34-28 64-28.5 64.4-32.45Q65.09-32.45 67.07-32.4 69.05-32.35 71.25-32.35L71.25-32.35Q74.2-32.35 77.09-32.45 80-32.55 80.8-32.6L80.8-32.6 81.2-32.15 80.9-27.95Q79.2-27.75 78.59-27.6 78-27.45 77.84-27.2 77.7-26.95 77.7-26.25L77.7-26.25Q77.7-25 78.82-17.95 79.95-10.9 80.4-8.4L80.4-8.4 81.5-8.4Q82.15-11.05 83.87-18.43 85.59-25.8 85.59-26.85L85.59-26.85Q85.59-27.5 85.32-27.68 85.05-27.85 84.05-27.85L84.05-27.85 82.75-27.85 82.34-28.35 82.75-32.5Q83.5-32.45 85.72-32.4 87.95-32.35 90.45-32.35L90.45-32.35 96.59-32.4 96.25-28.05Q95.45-27.8 95.05-27.28 94.65-26.75 94.2-25.3L94.2-25.3 86.75-0.2 73 0.65Z" opacity="1" transform="matrix(1,0,0,1,0,0)" fill="#fab23d" class="wordmark-text-0" data-fill-palette-color="primary" id="text-0"></path></svg></g></svg></g></svg></g></svg></g></svg></g></svg></g></svg></g><g><path d="M245.816 0c68.262 0 123.6 55.338 123.6 123.6 0 68.262-55.338 123.6-123.6 123.6-49.29 0-91.841-28.852-111.687-70.588h4.3c19.553 39.534 60.295 66.721 107.387 66.72 66.126 0 119.732-53.606 119.732-119.732 0-66.126-53.606-119.732-119.732-119.732-47.092 0-87.834 27.186-107.387 66.72l-4.3 0c19.845-41.736 62.397-70.588 111.687-70.588z" fill="#fab23d" stroke="transparent" data-fill-palette-color="tertiary"></path></g></svg></g><defs></defs></svg><rect width="395.52" height="247.2" fill="none" stroke="none" visibility="hidden"></rect></g></svg></g></svg>